REM DIRINDEX 1\2,1\3,1\4,1\5
REM DIRNAME cjc005,folder01,folder02,folder03,folder04
TITLE ""
FILE "P1Q_j_1579-1592.mp3" MP3
  TRACK 01 AUDIO
    TITLE "3:cjc005_0086"
    INDEX 01 00:00:00
  TRACK 02 AUDIO
    TITLE "0:"
    INDEX 01 00:01:54
  TRACK 03 AUDIO
    TITLE "4:cjc005_0087"
    INDEX 01 00:02:06
  TRACK 04 AUDIO
    TITLE "0:"
    INDEX 01 00:03:39
  TRACK 05 AUDIO
    TITLE "5:cjc005_0088"
    INDEX 01 00:03:68
  TRACK 06 AUDIO
    TITLE "0:"
    INDEX 01 00:07:11
  TRACK 07 AUDIO
    TITLE "3:cjc005_0089"
    INDEX 01 00:07:60
  TRACK 08 AUDIO
    TITLE "0:"
    INDEX 01 00:09:28
  TRACK 09 AUDIO
    TITLE "4:cjc005_0090"
    INDEX 01 00:09:61
  TRACK 10 AUDIO
    TITLE "0:"
    INDEX 01 00:11:35
  TRACK 11 AUDIO
    TITLE "5:cjc005_0091"
    INDEX 01 00:11:68
  TRACK 12 AUDIO
    TITLE "0:"
    INDEX 01 00:16:34
  TRACK 13 AUDIO
    TITLE "3:cjc005_0092"
    INDEX 01 00:17:16
  TRACK 14 AUDIO
    TITLE "0:"
    INDEX 01 00:18:66
  TRACK 15 AUDIO
    TITLE "4:cjc005_0093"
    INDEX 01 00:19:24
  TRACK 16 AUDIO
    TITLE "0:"
    INDEX 01 00:20:53
  TRACK 17 AUDIO
    TITLE "5:cjc005_0094"
    INDEX 01 00:21:08
  TRACK 18 AUDIO
    TITLE "0:"
    INDEX 01 00:24:59
  TRACK 19 AUDIO
    TITLE "3:cjc005_0095"
    INDEX 01 00:25:41
  TRACK 20 AUDIO
    TITLE "0:"
    INDEX 01 00:27:16
  TRACK 21 AUDIO
    TITLE "4:cjc005_0096"
    INDEX 01 00:27:41
  TRACK 22 AUDIO
    TITLE "0:"
    INDEX 01 00:29:15
  TRACK 23 AUDIO
    TITLE "5:cjc005_0097"
    INDEX 01 00:29:44
  TRACK 24 AUDIO
    TITLE "0:"
    INDEX 01 00:35:29
  TRACK 25 AUDIO
    TITLE "3:cjc005_0098"
    INDEX 01 00:36:13
  TRACK 26 AUDIO
    TITLE "0:"
    INDEX 01 00:37:67
  TRACK 27 AUDIO
    TITLE "4:cjc005_0099"
    INDEX 01 00:38:26
  TRACK 28 AUDIO
    TITLE "0:"
    INDEX 01 00:40:48
  TRACK 29 AUDIO
    TITLE "5:cjc005_0100"
    INDEX 01 00:41:02
  TRACK 30 AUDIO
    TITLE "0:"
    INDEX 01 00:44:05
  TRACK 31 AUDIO
    TITLE "3:cjc005_0101"
    INDEX 01 00:44:61
  TRACK 32 AUDIO
    TITLE "0:"
    INDEX 01 00:46:29
  TRACK 33 AUDIO
    TITLE "4:cjc005_0102"
    INDEX 01 00:46:60
  TRACK 34 AUDIO
    TITLE "0:"
    INDEX 01 00:48:22
  TRACK 35 AUDIO
    TITLE "5:cjc005_0103"
    INDEX 01 00:48:49
  TRACK 36 AUDIO
    TITLE "0:"
    INDEX 01 00:51:58
  TRACK 37 AUDIO
    TITLE "3:cjc005_0104"
    INDEX 01 00:52:49
  TRACK 38 AUDIO
    TITLE "0:"
    INDEX 01 00:54:17
  TRACK 39 AUDIO
    TITLE "4:cjc005_0105"
    INDEX 01 00:54:54
  TRACK 40 AUDIO
    TITLE "0:"
    INDEX 01 00:55:69
  TRACK 41 AUDIO
    TITLE "5:cjc005_0106"
    INDEX 01 00:56:18
  TRACK 42 AUDIO
    TITLE "0:"
    INDEX 01 01:00:31
  TRACK 43 AUDIO
    TITLE "3:cjc005_0107"
    INDEX 01 01:01:17
  TRACK 44 AUDIO
    TITLE "0:"
    INDEX 01 01:02:48
  TRACK 45 AUDIO
    TITLE "4:cjc005_0108"
    INDEX 01 01:03:16
  TRACK 46 AUDIO
    TITLE "0:"
    INDEX 01 01:04:62
  TRACK 47 AUDIO
    TITLE "5:cjc005_0109"
    INDEX 01 01:05:17
  TRACK 48 AUDIO
    TITLE "0:"
    INDEX 01 01:07:45
  TRACK 49 AUDIO
    TITLE "3:cjc005_0110"
    INDEX 01 01:08:35
  TRACK 50 AUDIO
    TITLE "0:"
    INDEX 01 01:10:20
  TRACK 51 AUDIO
    TITLE "4:cjc005_0111"
    INDEX 01 01:10:53
  TRACK 52 AUDIO
    TITLE "0:"
    INDEX 01 01:12:38
  TRACK 53 AUDIO
    TITLE "5:cjc005_0112"
    INDEX 01 01:12:58
  TRACK 54 AUDIO
    TITLE "0:"
    INDEX 01 01:16:48
  TRACK 55 AUDIO
    TITLE "3:cjc005_0113"
    INDEX 01 01:17:35
  TRACK 56 AUDIO
    TITLE "0:"
    INDEX 01 01:19:17
  TRACK 57 AUDIO
    TITLE "4:cjc005_0114"
    INDEX 01 01:19:54
  TRACK 58 AUDIO
    TITLE "0:"
    INDEX 01 01:21:16
  TRACK 59 AUDIO
    TITLE "5:cjc005_0115"
    INDEX 01 01:21:43
  TRACK 60 AUDIO
    TITLE "0:"
    INDEX 01 01:26:01
  TRACK 61 AUDIO
    TITLE "3:cjc005_0116"
    INDEX 01 01:26:56
  TRACK 62 AUDIO
    TITLE "0:"
    INDEX 01 01:28:47
  TRACK 63 AUDIO
    TITLE "4:cjc005_0117"
    INDEX 01 01:28:72
  TRACK 64 AUDIO
    TITLE "0:"
    INDEX 01 01:30:44
  TRACK 65 AUDIO
    TITLE "5:cjc005_0118"
    INDEX 01 01:30:69
  TRACK 66 AUDIO
    TITLE "0:"
    INDEX 01 01:35:67
  TRACK 67 AUDIO
    TITLE "3:cjc005_0119"
    INDEX 01 01:36:52
  TRACK 68 AUDIO
    TITLE "0:"
    INDEX 01 01:38:00
  TRACK 69 AUDIO
    TITLE "4:cjc005_0120"
    INDEX 01 01:38:30
  TRACK 70 AUDIO
    TITLE "0:"
    INDEX 01 01:39:51
  TRACK 71 AUDIO
    TITLE "5:cjc005_0121"
    INDEX 01 01:40:03
  TRACK 72 AUDIO
    TITLE "0:"
    INDEX 01 01:44:32
  TRACK 73 AUDIO
    TITLE "3:cjc005_0122"
    INDEX 01 01:45:16
  TRACK 74 AUDIO
    TITLE "0:"
    INDEX 01 01:46:21
  TRACK 75 AUDIO
    TITLE "4:cjc005_0123"
    INDEX 01 01:46:59
  TRACK 76 AUDIO
    TITLE "0:"
    INDEX 01 01:47:56
  TRACK 77 AUDIO
    TITLE "5:cjc005_0124"
    INDEX 01 01:48:07
  TRACK 78 AUDIO
    TITLE "0:"
    INDEX 01 01:51:40
  TRACK 79 AUDIO
    TITLE "3:cjc005_0125"
    INDEX 01 01:52:26
  TRACK 80 AUDIO
    TITLE "0:"
    INDEX 01 01:53:43
  TRACK 81 AUDIO
    TITLE "4:cjc005_0126"
    INDEX 01 01:53:69
  TRACK 82 AUDIO
    TITLE "0:"
    INDEX 01 01:55:15
  TRACK 83 AUDIO
    TITLE "5:cjc005_0127"
    INDEX 01 01:55:36
  TRACK 84 AUDIO
    TITLE "0:"
    INDEX 01 01:59:59
